<svg width="40" height="36" viewBox="0 0 40 36" fill="none" xmlns="http://www.w3.org/2000/svg">
<path d="M35.125 19.375C34.2723 19.3762 33.4409 19.6411 32.7447 20.1335C32.0485 20.6258 31.5216 21.3214 31.2363 22.125H27.8659L25.4295 14.8152C25.3366 14.5366 25.157 14.2952 24.917 14.1261C24.6769 13.957 24.389 13.8692 24.0955 13.8756C23.802 13.8819 23.5182 13.9821 23.2856 14.1613C23.0531 14.3406 22.8841 14.5896 22.8033 14.8719L18.9782 28.2575L14.4811 1.27312C14.4289 0.961565 14.2711 0.677466 14.0341 0.468596C13.7971 0.259726 13.4955 0.138823 13.1798 0.126218C12.8642 0.113612 12.5538 0.210073 12.301 0.39938C12.0481 0.588687 11.8681 0.859294 11.7912 1.1657L6.55164 22.125H2.125C1.76033 22.125 1.41059 22.2699 1.15273 22.5277C0.894866 22.7856 0.75 23.1353 0.75 23.5C0.75 23.8647 0.894866 24.2144 1.15273 24.4723C1.41059 24.7301 1.76033 24.875 2.125 24.875H7.625C7.93162 24.8749 8.22942 24.7724 8.47109 24.5837C8.71275 24.395 8.88439 24.1309 8.95875 23.8334L12.8552 8.24695L17.2689 34.726C17.3198 35.0343 17.4741 35.3161 17.7066 35.525C17.939 35.7338 18.2357 35.8573 18.5477 35.875H18.6259C18.9244 35.8748 19.2148 35.7773 19.453 35.5975C19.6913 35.4177 19.8646 35.1652 19.9467 34.8781L24.2264 19.9009L25.5705 23.9348C25.6617 24.2086 25.8368 24.4468 26.071 24.6155C26.3051 24.7842 26.5864 24.875 26.875 24.875H31.2363C31.4884 25.588 31.9317 26.218 32.5176 26.6961C33.1036 27.1742 33.8097 27.482 34.5588 27.5859C35.3079 27.6898 36.0711 27.5857 36.7651 27.2851C37.459 26.9845 38.057 26.4989 38.4936 25.8814C38.9302 25.2639 39.1886 24.5382 39.2406 23.7838C39.2927 23.0293 39.1363 22.275 38.7886 21.6035C38.4409 20.9319 37.9152 20.3688 37.2691 19.9758C36.623 19.5827 35.8813 19.3749 35.125 19.375Z" fill="#F9F9F9"/>
</svg>
