<svg width="24" height="24" viewBox="0 0 24 24" fill="none" xmlns="http://www.w3.org/2000/svg">
<path d="M23.7807 8.70485L15.2964 0.220473C15.1557 0.0799267 14.965 0.000976562 14.7662 0.000976562C14.5674 0.000976562 14.3767 0.0799267 14.2361 0.220473L13.1725 1.27985C13.1028 1.34949 13.0475 1.43218 13.0098 1.52319C12.9721 1.61419 12.9527 1.71173 12.9527 1.81024C12.9527 1.90874 12.9721 2.00629 13.0098 2.09729C13.0475 2.1883 13.1028 2.27098 13.1725 2.34063L21.6568 10.825C21.7265 10.8947 21.8092 10.9499 21.9002 10.9876C21.9912 11.0253 22.0887 11.0447 22.1872 11.0447C22.2857 11.0447 22.3833 11.0253 22.4743 10.9876C22.5653 10.9499 22.648 10.8947 22.7176 10.825L23.7779 9.76422C23.9186 9.624 23.9978 9.43371 23.9984 9.23512C23.9989 9.03652 23.9206 8.84582 23.7807 8.70485ZM15.3648 11.8178L12.1825 8.63547L14.7653 6.05266L12.6442 3.93157L7.5034 9.07235C6.90706 9.6687 6.49014 10.4205 6.30012 11.2422L4.99981 16.8794L0.218556 21.6606C0.148893 21.7303 0.0936335 21.813 0.0559318 21.904C0.0182301 21.995 -0.00117493 22.0925 -0.00117493 22.191C-0.00117493 22.2895 0.0182301 22.3871 0.0559318 22.4781C0.0936335 22.5691 0.148893 22.6518 0.218556 22.7214L1.27887 23.7817C1.34851 23.8514 1.4312 23.9066 1.52221 23.9443C1.61321 23.982 1.71075 24.0015 1.80926 24.0015C1.90776 24.0015 2.00531 23.982 2.09631 23.9443C2.18732 23.9066 2.27 23.8514 2.33965 23.7817L7.1209 19.0005L12.7576 17.6997C13.5794 17.5104 14.3313 17.0938 14.9275 16.4973L20.0687 11.3561L17.9476 9.23407L15.3648 11.8178ZM12.8068 14.3758C12.6077 14.5745 12.3568 14.7132 12.0826 14.7761L8.36543 15.6348L9.22324 11.9177C9.28692 11.6436 9.42589 11.3928 9.62449 11.1934L10.0609 10.757L13.2432 13.9394L12.8068 14.3758Z" fill="#F9F9F9"/>
</svg>
