<svg width="24" height="22" viewBox="0 0 24 22" fill="none" xmlns="http://www.w3.org/2000/svg">
<path d="M17.953 10.136C17.8004 8.46775 17.2948 6.85101 16.4699 5.39298C15.6449 3.93496 14.5194 2.66899 13.168 1.67901L13.135 1.65601L11.797 0.687012L10.544 1.66201C7.978 3.67001 6.277 6.68101 6.033 10.095L6.031 10.133C5.52674 10.0365 5.0144 9.98865 4.501 9.99001H0.75V13.063C0.75 17.612 4.451 21.313 9 21.313H15C19.549 21.313 23.25 17.612 23.25 13.063V9.99001H19.5C18.953 9.99001 18.418 10.043 17.901 10.145L17.953 10.136ZM11.464 2.84601L11.828 2.56301L12.254 2.87101C14.671 4.64101 16.277 7.39501 16.479 10.532L16.481 10.562C14.5178 11.3448 12.9244 12.8428 12.022 14.754L12.001 14.805C11.1118 12.8845 9.52612 11.3736 7.565 10.578L7.509 10.558C7.56066 9.06555 7.93973 7.60267 8.61937 6.27293C9.29902 4.9432 10.2626 3.77909 11.442 2.86301L11.465 2.84601H11.464ZM11.25 19.813H9C7.21044 19.8109 5.49478 19.0991 4.22937 17.8336C2.96396 16.5682 2.25212 14.8526 2.25 13.063V11.49H4.5C6.28956 11.4921 8.00522 12.204 9.27063 13.4694C10.536 14.7348 11.2479 16.4504 11.25 18.24V19.813ZM21.75 13.063C21.7479 14.8526 21.036 16.5682 19.7706 17.8336C18.5052 19.0991 16.7896 19.8109 15 19.813H12.75V18.24C12.7521 16.4504 13.464 14.7348 14.7294 13.4694C15.9948 12.204 17.7104 11.4921 19.5 11.49H21.75V13.063Z" fill="#F9F9F9"/>
</svg>
